# generated from PmQm by Jehee Lee
:FULLY-SPECIFIED
:DEGREES
321
root 1.74169 25.0409 -16.8361 156.288 11.8501 -176.8
RightUpLeg -50.6899 4.57556 -0.988188
RightLeg 78.7836 1.34731 6.56554
RightFoot -7.95595 -0.251 6.65351
RightToes -0.000541893 -0.000659172 -0.000493268
Spine 13.4754 0.385453 2.97832
Spine1 27.2125 0.194967 5.13811
HEad -19.3576 -0.479624 -6.9112
LeftShoulder1 -3.88251e-019 -0 -3.92111e-022
LeftArm -29.7283 -7.85215 -85.2616
LeftForeArm 30.912 2.05058 1.06393
LeftHand -0.906793 -4.81071 10.5957
RightShoulder 7.45443e-017 -2.42657e-020 1.96277e-018
RightArm -15.8656 5.22658 72.3854
RightForeArm -0.80564 10.8522 10.1267
RightHand -2.63621 16.0256 -14.6001
LeftUpLeg -50.1025 -4.89667 10.7457
LeftLeg 82.9664 -1.17164 -10.0936
LeftFoot -13.3109 -0.0153707 -5.1746
LeftToes 3.91355e-005 3.11907e-005 -4.10385e-006
322
root 1.74194 25.0456 -16.8491 156.269 11.7797 -176.835
RightUpLeg -50.6661 4.76514 -1.08356
RightLeg 78.8258 1.31288 6.38542
RightFoot -8.01516 -0.251872 6.78771
RightToes -0.000541893 -0.000659172 -0.000493268
Spine 13.4606 0.370223 2.9706
Spine1 27.1821 0.16644 5.12788
HEad -18.6989 -0.363719 -7.16511
LeftShoulder1 -3.88251e-019 -0 -3.92111e-022
LeftArm -29.8026 -7.73216 -85.3446
LeftForeArm 30.6727 2.05786 1.03948
LeftHand -0.90347 -4.83113 10.5382
RightShoulder 7.45443e-017 -2.42657e-020 1.96277e-018
RightArm -15.7831 5.09002 72.3934
RightForeArm -0.826482 11.1408 9.94229
RightHand -2.5445 15.9853 -14.139
LeftUpLeg -50.0652 -4.97097 10.6775
LeftLeg 82.9638 -1.16712 -10.0624
LeftFoot -13.3768 -0.0148606 -5.18712
LeftToes 3.91355e-005 3.11907e-005 -4.10385e-006
323
root 1.74234 25.0514 -16.8554 156.254 11.7583 -176.87
RightUpLeg -50.6396 4.95496 -1.15307
RightLeg 78.8284 1.28649 6.22488
RightFoot -8.05004 -0.253264 6.89966
RightToes -0.000541893 -0.000659172 -0.000493268
Spine 13.4516 0.368214 2.93202
Spine1 27.1638 0.174633 5.05622
HEad -18.0339 -0.135392 -7.29232
LeftShoulder1 -3.88251e-019 -0 -3.92111e-022
LeftArm -29.945 -7.66398 -85.2875
LeftForeArm 30.4074 2.06017 1.09161
LeftHand -0.894901 -4.88069 10.394
RightShoulder 7.45443e-017 -2.42657e-020 1.96277e-018
RightArm -15.7447 5.0758 72.4401
RightForeArm -0.483734 11.0841 10.0409
RightHand -2.52551 16.0574 -13.9923
LeftUpLeg -50.034 -5.01452 10.6261
LeftLeg 82.9622 -1.16882 -10.0551
LeftFoot -13.3887 -0.0132788 -5.22575
LeftToes 3.91355e-005 3.11907e-005 -4.10385e-006
324
root 1.74495 25.0518 -16.8548 156.217 11.7442 -176.903
RightUpLeg -50.6057 5.03562 -1.19316
RightLeg 78.8308 1.27662 6.15523
RightFoot -8.08381 -0.253005 6.95384
RightToes -0.000541893 -0.000659172 -0.000493268
Spine 13.4529 0.372068 2.89739
Spine1 27.1664 0.187427 4.99442
HEad -17.477 0.247578 -7.34437
LeftShoulder1 -3.88251e-019 -0 -3.92111e-022
LeftArm -30.0899 -7.63745 -85.1945
LeftForeArm 30.5136 2.055 1.12617
LeftHand -0.872493 -4.91322 10.1121
RightShoulder 7.45443e-017 -2.42657e-020 1.96277e-018
RightArm -15.7662 5.13349 72.4655
RightForeArm -0.238241 10.9541 10.1535
RightHand -2.51296 15.8783 -14.038
LeftUpLeg -49.9939 -5.02331 10.5921
LeftLeg 82.9443 -1.16932 -10.0454
LeftFoot -13.3742 -0.0155555 -5.2098
LeftToes 3.91355e-005 3.11907e-005 -4.10385e-006
325
root 1.75082 25.0503 -16.8456 156.209 11.722 -176.931
RightUpLeg -50.6149 4.97521 -1.20659
RightLeg 78.8261 1.28333 6.19075
RightFoot -8.06117 -0.252595 6.89711
RightToes -0.000541893 -0.000659172 -0.000493268
Spine 13.4406 0.377342 2.91546
Spine1 27.1421 0.192728 5.03684
HEad -17.0254 0.569818 -7.39707
LeftShoulder1 -3.88251e-019 -0 -3.92111e-022
LeftArm -30.1865 -7.65067 -85.218
LeftForeArm 30.8516 2.0495 1.08491
LeftHand -0.867181 -4.88393 10.0798
RightShoulder 7.45443e-017 -2.42657e-020 1.96277e-018
RightArm -15.6186 5.08771 72.3864
RightForeArm -0.390702 10.9824 10.1968
RightHand -2.52126 15.7347 -14.174
LeftUpLeg -49.9939 -5.02662 10.5685
LeftLeg 82.9147 -1.17161 -10.0495
LeftFoot -13.357 -0.0171965 -5.20558
LeftToes 3.91355e-005 3.11907e-005 -4.10385e-006
326
root 1.75545 25.0485 -16.835 156.242 11.7749 -176.917
RightUpLeg -50.6618 4.90663 -1.14028
RightLeg 78.7961 1.29541 6.25978
RightFoot -7.9773 -0.254249 6.80041
RightToes -0.000541893 -0.000659172 -0.000493268
Spine 13.423 0.396018 2.98263
Spine1 27.1074 0.21511 5.16615
HEad -16.4015 0.764527 -7.5406
LeftShoulder1 -3.88251e-019 -0 -3.92111e-022
LeftArm -30.2695 -7.71066 -85.2639
LeftForeArm 31.1693 2.04595 1.02185
LeftHand -0.877189 -4.83729 10.2359
RightShoulder 7.45443e-017 -2.42657e-020 1.96277e-018
RightArm -15.4812 5.01255 72.2935
RightForeArm -0.430373 10.9322 10.2871
RightHand -2.57448 15.8668 -14.3745
LeftUpLeg -50.0333 -4.96832 10.6161
LeftLeg 82.9148 -1.17539 -10.0598
LeftFoot -13.3369 -0.0175158 -5.22001
LeftToes 3.91355e-005 3.11907e-005 -4.10385e-006
327
root 1.75999 25.0476 -16.8296 156.252 11.8592 -176.924
RightUpLeg -50.6938 4.91374 -1.08728
RightLeg 78.7825 1.30539 6.30623
RightFoot -7.93248 -0.255867 6.7685
RightToes -0.000541893 -0.000659172 -0.000493268
Spine 13.4195 0.416867 3.01374
Spine1 27.101 0.250177 5.22549
HEad -15.3998 1.00739 -7.73408
LeftShoulder1 -3.88251e-019 -0 -3.92111e-022
LeftArm -30.2929 -7.77928 -85.2543
LeftForeArm 31.3563 2.04379 0.982319
LeftHand -0.865652 -4.84296 10.1006
RightShoulder 7.45443e-017 -2.42657e-020 1.96277e-018
RightArm -15.5133 5.01683 72.259
RightForeArm -0.104025 10.8024 10.3809
RightHand -2.61065 15.9453 -14.5168
LeftUpLeg -50.0388 -4.89962 10.6686
LeftLeg 82.9133 -1.17661 -10.039
LeftFoot -13.3244 -0.0183636 -5.22043
LeftToes 3.91355e-005 3.11907e-005 -4.10385e-006
328
root 1.76452 25.0504 -16.8239 156.239 11.8923 -176.972
RightUpLeg -50.7011 5.01476 -1.11484
RightLeg 78.7753 1.30494 6.28413
RightFoot -7.92885 -0.258295 6.80687
RightToes -0.000541893 -0.000659172 -0.000493268
Spine 13.4189 0.411474 3.00573
Spine1 27.0996 0.241463 5.21135
HEad -14.1364 1.44033 -7.92877
LeftShoulder1 -3.88251e-019 -0 -3.92111e-022
LeftArm -30.2243 -7.82723 -85.2596
LeftForeArm 31.321 2.04376 0.983498
LeftHand -0.868636 -4.87276 10.1069
RightShoulder 7.45443e-017 -2.42657e-020 1.96277e-018
RightArm -15.1584 4.95026 72.1969
RightForeArm -0.415685 11.0574 10.4188
RightHand -2.61115 15.8837 -14.5597
LeftUpLeg -50.0141 -4.92459 10.6618
LeftLeg 82.8828 -1.17686 -9.9847
LeftFoot -13.3161 -0.0164249 -5.25478
LeftToes 3.91355e-005 3.11907e-005 -4.10385e-006
329
root 1.76358 25.0545 -16.8131 156.279 11.9514 -176.919
RightUpLeg -50.7227 5.24401 -1.06811
RightLeg 78.7031 1.28771 6.13363
RightFoot -7.86955 -0.263446 6.9151
RightToes -0.000541893 -0.000659172 -0.000493268
Spine 13.4042 0.374207 3.05814
Spine1 27.0682 0.157373 5.29434
HEad -12.7471 2.12311 -8.31898
LeftShoulder1 -3.88251e-019 -0 -3.92111e-022
LeftArm -30.2242 -7.84078 -85.2929
LeftForeArm 31.1637 2.04347 1.02607
LeftHand -0.932277 -4.8715 10.822
RightShoulder 7.45443e-017 -2.42657e-020 1.96277e-018
RightArm -14.4428 4.71421 72.0959
RightForeArm -1.47776 11.7353 10.2974
RightHand -2.57785 15.8832 -14.382
LeftUpLeg -50.0465 -4.97521 10.7548
LeftLeg 82.8647 -1.17455 -9.92521
LeftFoot -13.2961 -0.0116675 -5.31977
LeftToes 3.91355e-005 3.11907e-005 -4.10385e-006
330
root 1.75709 25.0575 -16.8048 156.365 11.9975 -176.808
RightUpLeg -50.7672 5.4685 -0.98686
RightLeg 78.6148 1.26378 5.93266
RightFoot -7.82548 -0.270571 7.07091
RightToes -0.000541893 -0.000659172 -0.000493268
Spine 13.3742 0.328286 3.13085
Spine1 27.0061 0.0518013 5.41117
HEad -11.2364 3.08134 -8.96796
LeftShoulder1 -3.88251e-019 -0 -3.92111e-022
LeftArm -30.2824 -7.75567 -85.3317
LeftForeArm 31.1351 2.03884 1.08592
LeftHand -0.986344 -4.87893 11.4215
RightShoulder 7.45443e-017 -2.42657e-020 1.96277e-018
RightArm -14.4323 4.35903 72.0159
RightForeArm -1.76863 12.3614 9.86655
RightHand -2.4926 15.9015 -13.9144
LeftUpLeg -50.1346 -5.02311 10.8868
LeftLeg 82.8532 -1.17108 -9.86597
LeftFoot -13.2613 -0.009649330011 -5.31301
LeftToes 3.91355e-005 3.11907e-005 -4.10385e-006
